<svg width="250" height="47" viewBox="0 0 330 75" fill="none" xmlns="http://www.w3.org/2000/svg">
<defs>
    <style>
        .cls-1{fill:#524e4d;}.cls-2{fill:#ea0000;}.cls-3,.cls-4{fill:#eb0000;}.cls-4{stroke:#eb0000;stroke-miterlimit:10;stroke-width:0.29px;}
    </style>
</defs>
<path class="cls-1" d="M95.82,22.33V38.21H92.64V22.33Zm60.66,5a5,5,0,0,0-5-5h-7.25V38.21h3.13V25.1h3.71a2.21,2.21,0,1,1,0,4.41h-2.53l4.6,8.7h3.41L153.22,32h0A5,5,0,0,0,156.48,27.3ZM53.16,35H47.75V31.79h5.08V28.74H47.75V25.5h5.41l1.68-3.18H44.58V38.21H54.84Zm72.24,0H120V31.79h5.09V28.74H120V25.5h5.41l1.68-3.18H116.82V38.21h10.26Zm13.86,0h-5.4V31.79h5.08V28.74h-5.08V25.5h5.4L141,22.32H130.68V38.21H141ZM67.8,22.32v11.2l-5.89-11.2H57.84V38.21H61V27l5.73,11.19H71V22.33H67.8Zm41.87,0v11.2l-5.89-11.2H99.71V38.21h3.18V27l5.73,11.19h4.23V22.33h-3.18ZM82.39,32.44h3.35s0,1,0,1.4c0,.79-1.62,1.53-3.58,1.53-2.24,0-4.5-1.58-4.5-5.09a5.15,5.15,0,0,1,1.43-3.85,4.38,4.38,0,0,1,3.05-1.2A3.83,3.83,0,0,1,86,28.06l0,.11,3-1.17,0-.1a6.9,6.9,0,0,0-2.25-3.3,7.23,7.23,0,0,0-4.63-1.5,7.65,7.65,0,0,0-5.42,2.19A7.78,7.78,0,0,0,75,26.87a9.07,9.07,0,0,0-.63,3.41,8.28,8.28,0,0,0,2.25,6A7.34,7.34,0,0,0,82,38.43a12.24,12.24,0,0,0,5.08-1,6.27,6.27,0,0,1,1.84-.5h0V29.51H82.39Z"/><rect class="cls-2" x="152.97" y="1.48" width="3.19" height="15.89"/><polygon class="cls-2" points="140.18 1.48 134.05 17.38 137.4 17.38 141.91 5.26 146.42 17.38 149.77 17.38 143.65 1.48 140.18 1.48"/><polygon class="cls-2" points="66.92 1.48 60.79 17.38 64.14 17.38 68.65 5.26 73.16 17.38 76.51 17.38 70.39 1.48 66.92 1.48"/><path class="cls-2" d="M111.28,11.29a3.18,3.18,0,0,1-3.19,3.14,3,3,0,0,1-3.18-3v-10h-3.19v10a6.38,6.38,0,0,0,12.76,0h0v-10h-3.19Z"/><path class="cls-2" d="M131.51,6.47a5,5,0,0,0-5-5h-7.28v15.9h3.14V4.26h3.73a2.21,2.21,0,1,1,0,4.41h-2.55l4.63,8.71h3.42l-3.37-6.23h0A5,5,0,0,0,131.51,6.47Z"/><polygon class="cls-2" points="93.03 1.48 88.35 7.87 83.67 1.48 79.74 1.48 79.74 1.48 79.74 17.38 82.93 17.38 82.93 5.82 88.35 13.04 93.78 5.82 93.78 17.38 96.97 17.38 96.97 1.48 96.97 1.48 93.03 1.48"/><path class="cls-2" d="M53.83,7.9H49.37a1.62,1.62,0,0,1-1.59-1.62,1.59,1.59,0,0,1,1.56-1.62h7.91l1.69-3.18H49.35a4.78,4.78,0,0,0-4.79,4.77A4.72,4.72,0,0,0,49.34,11H53.8a1.62,1.62,0,0,1,0,3.24H45.85l-1.69,3.18h9.65A4.77,4.77,0,0,0,58.6,12.6,4.72,4.72,0,0,0,53.83,7.9Z"/><path class="cls-2" d="M28.18,23.26,13,38.49A19.85,19.85,0,0,1,19.84,0,19.26,19.26,0,0,1,22.7.21L9,14a6.83,6.83,0,0,0,0,9.6,6.74,6.74,0,0,0,9.58,0l4.95-5a3.22,3.22,0,0,1,2.31-1,3.26,3.26,0,0,1,2.31,1A3.32,3.32,0,0,1,28.18,23.26Z"/><path class="cls-2" d="M26.65,1.2,11.51,16.42a3.33,3.33,0,0,0,0,4.68,3.26,3.26,0,0,0,4.62,0l4.95-5a6.76,6.76,0,0,1,9.58,0,6.84,6.84,0,0,1,0,9.61L17,39.48a20.55,20.55,0,0,0,2.85.21A19.85,19.85,0,0,0,26.65,1.2Z"/><path class="cls-1" d="M203.87,29.9h0a.34.34,0,0,0-.29-.08h0a1.68,1.68,0,0,1-.3,0c-.23,0-.52,0-.84,0h-.88a15.55,15.55,0,0,1,1.26-1.82.38.38,0,0,0,.08-.27.37.37,0,0,0-.21-.26,1.53,1.53,0,0,0-1.18.2,12.78,12.78,0,0,0-1.2,1.8c-.07.12-.15.24-.21.35h-2a.94.94,0,0,0-.44.1,1.26,1.26,0,0,0-.36.27,1.37,1.37,0,0,0-.3.45.34.34,0,0,0,.07.36h0a.36.36,0,0,0,.3.07c.06,0,.38,0,2,0l-.06.11h0c-.28.52-.61,1.11-.82,1.51-.08.14-.21.39-.25.45a1.33,1.33,0,0,0-.06.12.34.34,0,0,0,0,.31.4.4,0,0,0,.24.2l.19,0a1.83,1.83,0,0,0,.45-.07,1,1,0,0,0,.65-.46c.2-.41.81-1.61,1.15-2.2h2.09a1,1,0,0,0,.68-.29,1.37,1.37,0,0,0,.35-.57v0A.34.34,0,0,0,203.87,29.9Z"/><path class="cls-3" d="M177.49,30.41a5.83,5.83,0,0,0,3.64-3.62,3.16,3.16,0,0,0-.58-2.87c-2-2.45-8.19-2.16-11.08-1.46A12.64,12.64,0,0,0,164,25.15a6.42,6.42,0,0,0-2.27,4.11,3.67,3.67,0,0,0,2.11,3.8.38.38,0,0,0,.5-.11.32.32,0,0,0-.11-.44l0,0a2.91,2.91,0,0,1-1.12-3.06c.45-2,2.79-4.5,7-5.67a17.73,17.73,0,0,1,5.11-.64,2.76,2.76,0,0,0-.88.4A31.79,31.79,0,0,0,168,29.91a31.63,31.63,0,0,0-4.35,7.14v.09a.82.82,0,0,0,.06.47,2.58,2.58,0,0,0,.88.72.46.46,0,0,0,.25.08.53.53,0,0,0,.17,0,.39.39,0,0,0,.18-.34c0-1,2.19-4.84,4.19-7.27,3.19-3.84,5.93-6.45,7.53-7.15h0a2.61,2.61,0,0,1,.41-.15,3.56,3.56,0,0,1,1.49.93,2,2,0,0,1,.41,1.77,5.19,5.19,0,0,1-2.95,3.36,12.45,12.45,0,0,1-5.75.86.35.35,0,0,0-.44.22.36.36,0,0,0,.26.42h0A14.11,14.11,0,0,0,177.49,30.41Z"/><path class="cls-3" d="M182.93,34l-.05,0,0,0Z"/><path class="cls-4" d="M185.91,37.47a6.48,6.48,0,0,0,2.72-1.61c.1-.11.14.08,0,.22-.93.74-2.51,1.84-3.43,1.89s-1.08-.77-.59-1.63c.3-.5.69-1,.84-1.2s0-.11-.07-.07a20.17,20.17,0,0,1-2.14,2.06,4.08,4.08,0,0,1-2.83.82c-.64-.09-.84-.75-.64-1.34A17,17,0,0,1,182,33.49c.3-.4.94-1.17.84-1.52,0-.1.1-.15.2,0,.72.8.87,1,.33,1.76-.32.48-3.18,3.38-2.49,3.8s1.61-.24,2.3-.71a23.67,23.67,0,0,0,3.22-3.29,14.2,14.2,0,0,0,1.09-1.39.12.12,0,0,1,.19-.07c.42.57.78,1,.73,1a36.72,36.72,0,0,0-2.84,3.55C185.13,37.45,185.66,37.53,185.91,37.47Z"/><path class="cls-4" d="M191.31,37.65c1.64-.22,2.24-1.87.73-2.51-.88-.38-1.33-.6-1.33-1.2,0-.85,1.15-1.35,2.32-1.57s2.86,0,2.81.72c-.05.59-.69.9-1.26,1h-.13c-.08,0-.31-.11-.21-.23s.53-.29.61-.49c.26-.68-.83-.92-1.72-.7s-1.3.56-1.27,1.13c0,.4.83.7,1.3.92,2,.94.18,3.11-1.8,3.33-1.3.14-2.83,0-3.2-1.32a1.14,1.14,0,0,1,.68-1.31,5.19,5.19,0,0,1,1-.36s.1,0,.15,0,0,.12,0,.12a1.63,1.63,0,0,0-.65,1.41C189.41,37.51,190.56,37.75,191.31,37.65Z"/><path class="cls-3" d="M176,36.64a4.36,4.36,0,0,0-.29.59.57.57,0,0,0,.1.49,2.27,2.27,0,0,0,.78.66h0a.34.34,0,0,0,.15,0,.67.67,0,0,0,.24-.05c.14-.11.12-.26.1-.41s0-.12.09-.34A55.69,55.69,0,0,1,180.78,32l.36-.51c2.46-3.61,4.78-7,6.43-7.59a.72.72,0,0,1,.32,0H188c.18,0,.25-.14.27-.31a.31.31,0,0,0-.22-.35,2.74,2.74,0,0,0-2.18,0c-1.54,1.06-3.64,4.11-5.85,7.35l-.68,1c-1,1.49-1.85,2.71-2.46,3.64Z"/>
</svg>
